<?xml version="1.0" encoding="iso-8859-1"?>
<!-- Uploaded to: SVG Repo, www.svgrepo.com, Generator: SVG Repo Mixer Tools -->
<svg fill="#000000" height="800px" width="800px" version="1.1" id="Layer_1" xmlns="http://www.w3.org/2000/svg" xmlns:xlink="http://www.w3.org/1999/xlink" 
	 viewBox="0 0 512.001 512.001" xml:space="preserve">
<g>
	<g>
		<path d="M456.348,0H139.13v378.435h-33.391V0C68.913,0,38.957,29.956,38.957,66.783v378.435c0,36.826,29.956,66.783,66.783,66.783
			h350.609c9.217,0,16.696-7.473,16.696-16.696V16.696C473.043,7.473,465.565,0,456.348,0z M325.269,103.635
			c1.963-6.045,7.188-10.45,13.477-11.363l13.456-1.956l6.017-12.193c2.813-5.699,8.616-9.306,14.972-9.306
			c6.356,0,12.159,3.607,14.971,9.306l6.017,12.193l13.457,1.956c6.289,0.913,11.513,5.318,13.477,11.362
			c1.965,6.045,0.326,12.68-4.225,17.115l-9.736,9.491l2.297,13.401c1.074,6.263-1.502,12.593-6.643,16.329
			c-5.141,3.734-11.956,4.227-17.583,1.271l-12.035-6.328l-12.034,6.327c-5.633,2.963-12.451,2.459-17.583-1.27
			c-5.141-3.735-7.717-10.065-6.643-16.329l2.297-13.401l-9.736-9.491C324.943,116.314,323.306,109.679,325.269,103.635z
			 M227.252,159.752c4.146-5.267,11.039-7.543,17.506-5.782c6.467,1.761,11.254,7.218,12.157,13.86
			c6.711,49.368,49.382,86.596,99.259,86.596c5.014,0,10.056-0.402,14.988-1.194c6.666-1.069,13.322,1.976,16.864,7.725
			c3.542,5.749,3.272,13.065-0.681,18.537c-18.876,26.121-49.252,41.716-81.258,41.716c-55.236,0-100.174-44.938-100.174-100.174
			C205.913,198.998,213.492,177.233,227.252,159.752z M105.739,478.609c-18.413,0-33.391-14.978-33.391-33.391
			c0-18.413,14.978-33.391,33.391-33.391h333.913v66.782H105.739z"/>
	</g>
</g>
</svg>