<svg width="24" height="24" viewBox="0 0 24 24" fill="none" xmlns="http://www.w3.org/2000/svg">
<path d="M32.0001 56.4444C45.5004 56.4444 56.4446 45.5003 56.4446 32C56.4446 18.4997 45.5004 7.55555 32.0001 7.55555C18.4998 7.55555 7.55566 18.4997 7.55566 32C7.55566 45.5003 18.4998 56.4444 32.0001 56.4444Z" fill="#FF5C5C"/>
<path fill-rule="evenodd" clip-rule="evenodd" d="M32.0002 9.77778C19.7272 9.77778 9.77794 19.727 9.77794 32C9.77794 44.273 19.7272 54.2222 32.0002 54.2222C44.2732 54.2222 54.2224 44.273 54.2224 32C54.2224 19.727 44.2732 9.77778 32.0002 9.77778ZM5.3335 32C5.3335 17.2724 17.2726 5.33333 32.0002 5.33333C46.7278 5.33333 58.6668 17.2724 58.6668 32C58.6668 46.7276 46.7278 58.6667 32.0002 58.6667C17.2726 58.6667 5.3335 46.7276 5.3335 32Z" fill="#F20000"/>
<path fill-rule="evenodd" clip-rule="evenodd" d="M32.0001 15.1111C33.2274 15.1111 34.2223 16.106 34.2223 17.3333V30.6266L42.7716 34.9012C43.8694 35.4501 44.3143 36.7849 43.7654 37.8827C43.2166 38.9804 41.8818 39.4253 40.784 38.8765L31.0062 33.9876C30.2534 33.6112 29.7778 32.8417 29.7778 32V17.3333C29.7778 16.106 30.7728 15.1111 32.0001 15.1111Z" fill="white"/>
</svg>
